<svg height="1646" width="720" xmlns="http://www.w3.org/2000/svg">
<rect height="1646" fill="#555" width="720"></rect>
<text fill="#7f7" font-family="Courier New" font-size="12" xml:space="preserve">
<tspan x="10" y="26">└─┬ gitgoodies@1.0.1 </tspan>
<tspan x="10" y="42">  ├─┬ chalk@1.1.3 </tspan>
<tspan x="10" y="58">  │ ├── ansi-styles@2.2.1 </tspan>
<tspan x="10" y="74">  │ ├── escape-string-regexp@1.0.5 </tspan>
<tspan x="10" y="90">  │ ├─┬ has-ansi@2.0.0 </tspan>
<tspan x="10" y="106">  │ │ └── ansi-regex@2.1.1 </tspan>
<tspan x="10" y="122">  │ ├── strip-ansi@3.0.1 </tspan>
<tspan x="10" y="138">  │ └── supports-color@2.0.0 </tspan>
<tspan x="10" y="154">  ├─┬ cli@0.6.6 </tspan>
<tspan x="10" y="170">  │ ├── exit@0.1.2 </tspan>
<tspan x="10" y="186">  │ └─┬ glob@3.2.11 </tspan>
<tspan x="10" y="202">  │   ├── inherits@2.0.3 </tspan>
<tspan x="10" y="218">  │   └─┬ minimatch@0.3.0 </tspan>
<tspan x="10" y="234">  │     ├── lru-cache@2.7.3 </tspan>
<tspan x="10" y="250">  │     └── sigmund@1.0.1 </tspan>
<tspan x="10" y="266">  ├─┬ latest-version@1.0.1 </tspan>
<tspan x="10" y="282">  │ └─┬ package-json@1.2.0 </tspan>
<tspan x="10" y="298">  │   ├─┬ got@3.3.1 </tspan>
<tspan x="10" y="314">  │   │ ├─┬ duplexify@3.5.0 </tspan>
<tspan x="10" y="330">  │   │ │ ├─┬ end-of-stream@1.0.0 </tspan>
<tspan x="10" y="346">  │   │ │ │ └─┬ once@1.3.3 </tspan>
<tspan x="10" y="362">  │   │ │ │   └── wrappy@1.0.2 </tspan>
<tspan x="10" y="378">  │   │ │ ├─┬ readable-stream@2.2.6 </tspan>
<tspan x="10" y="394">  │   │ │ │ ├── buffer-shims@1.0.0 </tspan>
<tspan x="10" y="410">  │   │ │ │ ├── core-util-is@1.0.2 </tspan>
<tspan x="10" y="426">  │   │ │ │ ├── isarray@1.0.0 </tspan>
<tspan x="10" y="442">  │   │ │ │ ├── process-nextick-args@1.0.7 </tspan>
<tspan x="10" y="458">  │   │ │ │ ├── string_decoder@0.10.31 </tspan>
<tspan x="10" y="474">  │   │ │ │ └── util-deprecate@1.0.2 </tspan>
<tspan x="10" y="490">  │   │ │ └── stream-shift@1.0.0 </tspan>
<tspan x="10" y="506">  │   │ ├── infinity-agent@2.0.3 </tspan>
<tspan x="10" y="522">  │   │ ├── is-redirect@1.0.0 </tspan>
<tspan x="10" y="538">  │   │ ├── is-stream@1.1.0 </tspan>
<tspan x="10" y="554">  │   │ ├── lowercase-keys@1.0.0 </tspan>
<tspan x="10" y="570">  │   │ ├── nested-error-stacks@1.0.2 </tspan>
<tspan x="10" y="586">  │   │ ├── object-assign@3.0.0 </tspan>
<tspan x="10" y="602">  │   │ ├── prepend-http@1.0.4 </tspan>
<tspan x="10" y="618">  │   │ ├─┬ read-all-stream@3.1.0 </tspan>
<tspan x="10" y="634">  │   │ │ └─┬ pinkie-promise@2.0.1 </tspan>
<tspan x="10" y="650">  │   │ │   └── pinkie@2.0.4 </tspan>
<tspan x="10" y="666">  │   │ └── timed-out@2.0.0 </tspan>
<tspan x="10" y="682">  │   └─┬ registry-url@3.1.0 </tspan>
<tspan x="10" y="698">  │     └─┬ rc@1.2.1 </tspan>
<tspan x="10" y="714">  │       ├── deep-extend@0.4.1 </tspan>
<tspan x="10" y="730">  │       ├── ini@1.3.4 </tspan>
<tspan x="10" y="746">  │       ├── minimist@1.2.0 </tspan>
<tspan x="10" y="762">  │       └── strip-json-comments@2.0.1 </tspan>
<tspan x="10" y="778">  └─┬ request@2.81.0 </tspan>
<tspan x="10" y="794">    ├── aws-sign2@0.6.0 </tspan>
<tspan x="10" y="810">    ├── aws4@1.6.0 </tspan>
<tspan x="10" y="826">    ├── caseless@0.12.0 </tspan>
<tspan x="10" y="842">    ├─┬ combined-stream@1.0.5 </tspan>
<tspan x="10" y="858">    │ └── delayed-stream@1.0.0 </tspan>
<tspan x="10" y="874">    ├── extend@3.0.0 </tspan>
<tspan x="10" y="890">    ├── forever-agent@0.6.1 </tspan>
<tspan x="10" y="906">    ├─┬ form-data@2.1.2 </tspan>
<tspan x="10" y="922">    │ └── asynckit@0.4.0 </tspan>
<tspan x="10" y="938">    ├─┬ har-validator@4.2.1 </tspan>
<tspan x="10" y="954">    │ ├─┬ ajv@4.11.5 </tspan>
<tspan x="10" y="970">    │ │ ├── co@4.6.0 </tspan>
<tspan x="10" y="986">    │ │ └─┬ json-stable-stringify@1.0.1 </tspan>
<tspan x="10" y="1002">    │ │   └── jsonify@0.0.0 </tspan>
<tspan x="10" y="1018">    │ └── har-schema@1.0.5 </tspan>
<tspan x="10" y="1034">    ├─┬ hawk@3.1.3 </tspan>
<tspan x="10" y="1050">    │ ├── boom@2.10.1 </tspan>
<tspan x="10" y="1066">    │ ├── cryptiles@2.0.5 </tspan>
<tspan x="10" y="1082">    │ ├── hoek@2.16.3 </tspan>
<tspan x="10" y="1098">    │ └── sntp@1.0.9 </tspan>
<tspan x="10" y="1114">    ├─┬ http-signature@1.1.1 </tspan>
<tspan x="10" y="1130">    │ ├── assert-plus@0.2.0 </tspan>
<tspan x="10" y="1146">    │ ├─┬ jsprim@1.4.0 </tspan>
<tspan x="10" y="1162">    │ │ ├── assert-plus@1.0.0 </tspan>
<tspan x="10" y="1178">    │ │ ├── extsprintf@1.0.2 </tspan>
<tspan x="10" y="1194">    │ │ ├── json-schema@0.2.3 </tspan>
<tspan x="10" y="1210">    │ │ └── verror@1.3.6 </tspan>
<tspan x="10" y="1226">    │ └─┬ sshpk@1.11.0 </tspan>
<tspan x="10" y="1242">    │   ├── asn1@0.2.3 </tspan>
<tspan x="10" y="1258">    │   ├── assert-plus@1.0.0 </tspan>
<tspan x="10" y="1274">    │   ├── bcrypt-pbkdf@1.0.1 </tspan>
<tspan x="10" y="1290">    │   ├─┬ dashdash@1.14.1 </tspan>
<tspan x="10" y="1306">    │   │ └── assert-plus@1.0.0 </tspan>
<tspan x="10" y="1322">    │   ├── ecc-jsbn@0.1.1 </tspan>
<tspan x="10" y="1338">    │   ├─┬ getpass@0.1.6 </tspan>
<tspan x="10" y="1354">    │   │ └── assert-plus@1.0.0 </tspan>
<tspan x="10" y="1370">    │   ├── jodid25519@1.0.2 </tspan>
<tspan x="10" y="1386">    │   ├── jsbn@0.1.1 </tspan>
<tspan x="10" y="1402">    │   └── tweetnacl@0.14.5 </tspan>
<tspan x="10" y="1418">    ├── is-typedarray@1.0.0 </tspan>
<tspan x="10" y="1434">    ├── isstream@0.1.2 </tspan>
<tspan x="10" y="1450">    ├── json-stringify-safe@5.0.1 </tspan>
<tspan x="10" y="1466">    ├─┬ mime-types@2.1.15 </tspan>
<tspan x="10" y="1482">    │ └── mime-db@1.27.0 </tspan>
<tspan x="10" y="1498">    ├── oauth-sign@0.8.2 </tspan>
<tspan x="10" y="1514">    ├── performance-now@0.2.0 </tspan>
<tspan x="10" y="1530">    ├── qs@6.4.0 </tspan>
<tspan x="10" y="1546">    ├── safe-buffer@5.0.1 </tspan>
<tspan x="10" y="1562">    ├── stringstream@0.0.5 </tspan>
<tspan x="10" y="1578">    ├─┬ tough-cookie@2.3.2 </tspan>
<tspan x="10" y="1594">    │ └── punycode@1.4.1 </tspan>
<tspan x="10" y="1610">    ├── tunnel-agent@0.6.0 </tspan>
<tspan x="10" y="1626">    └── uuid@3.0.1</tspan>
</text>
</svg>
